Full Credits To Feel Free :)

 ######## ######## ######## ##          ######## ########  ######## ######## 
 ##       ##       ##       ##          ##       ##     ## ##       ##       
 ##       ##       ##       ##          ##       ##     ## ##       ##       
 ######   ######   ######   ##          ######   ########  ######   ######   
 ##       ##       ##       ##          ##       ##   ##   ##       ##       
 ##       ##       ##       ##          ##       ##    ##  ##       ##       
 ##       ######## ######## ########    ##       ##     ## ######## ########

 Genre:Horror | Sci-Fi | Thriller 
 Language:English
 IMDb:  http://www.imdb.com/title/tt1772240/
 Source:Russian DVD-5/Mistere Thanks!

 Format : MPEG-4
 Format profile : Base Media
 Codec ID : isom
 File size : 1.08 GiB
 Duration : 1h 23mn
 Overall bit rate : 1 861 Kbps


 Video
 ID : 1
 Format : AVC
 Format/Info : Advanced Video Codec
 Format profile : High@L4.1
 Format settings, CABAC : Yes
 Format settings, ReFrames : 3 frames
 Codec ID : avc1
 Codec ID/Info : Advanced Video Coding
 Duration : 1h 23mn
 Bit rate mode : Variable
 Bit rate : 1 500 Kbps
 Maximum bit rate : 8 103 Kbps
 Width : 720 pixels
 Height : 384 pixels
 Display aspect ratio : 1.875
 Frame rate mode : Constant
 Frame rate : 25.000 fps
 Color space : YUV
 Chroma subsampling : 4:2:0
 Bit depth : 8 bits
 Scan type : Progressive
 Bits/(Pixel*Frame) : 0.217
 Stream size : 860 MiB (78%)
 Writing library : x264


 Audio
 ID : 2
 Format : AAC
 Format/Info : Advanced Audio Codec
 Format version : Version 4
 Format profile : LC
 Format settings, SBR : No
 Codec ID : 40
 Duration : 1h 23mn
 Bit rate mode : Variable
 Bit rate : 412 Kbps
 Maximum bit rate : 550 Kbps
 Channel(s) : 6 channels
 Channel positions : Front: L C R, Side: L R, LFE
 Sampling rate : 48.0 KHz
 Stream size : 245 MiB (22%)


 Plot:
 Decades-old found footage from NASA's abandoned Apollo 18 mission, where two 
 American astronauts were sent on a secret expedition, reveals the reason the 
 U.S. has never returned to the moon


 Greets:

 INK,CRYS,IMAGINE,LKRG,FXG,3Li,FLAWL3SS,TA,iLLUSiON,ViSiON,DTRG 
 SAFCuk009,LU,TheFalcon007,MYSTiC,PrisM,Noir,WBZ,LAP,Rx,Kingdom,SAFCuk009+Fabreezy,
 HDLiTE,TWiZTED,ExtraTorrentRG.ELEKTRI4KA,MAGNAT,CM8
 And to all the other p2p grps past and present






 ==================================                                                         http://thepiratebay.org/user/hiest
 ==================================






 Screenshots:
    http://www.pix2links.com/image/g0zSL.png
  http://www.pix2links.com/image/ScsOf.png
  http://www.pix2links.com/image/kvgSX.png
  http://www.pix2links.com/image/sXEuS.png
  http://www.pix2links.com/image/W9axH.png

 Full Credits To Feel Free :)

 ######## ######## ######## ##          ######## ########  ######## ######## 
 ##       ##       ##       ##          ##       ##     ## ##       ##       
 ##       ##       ##       ##          ##       ##     ## ##       ##       
 ######   ######   ######   ##          ######   ########  ######   ######   
 ##       ##       ##       ##          ##       ##   ##   ##       ##       
 ##       ##       ##       ##          ##       ##    ##  ##       ##       
 ##       ######## ######## ########    ##       ##     ## ######## ########